# xmcd CD database file
#
# Track frame offsets:
#	150
#	14633
#	28789
#	41318
#	57465
#	67583
#	79957
#	92701
#	102584
#	114600
#	126521
#	139765
#	151363
#	165568
#	181224
#	192490
#
# Disc length: 2700 seconds
#
# Revision: 0
# Processed by: cddbd v1.5.1PL0 Copyright (c) Steve Scherf et al.
# Submitted via: CDex 1.51
#
DISCID=dd0a8a10
DTITLE=Ladies First - Peggy Lee
DYEAR=2003
DGENRE=Country
TTITLE0=Billy Holiday_-_Fine and Mellow
TTITLE1=Ella Fitzgerald_-_How High The Moon
TTITLE2=Dinah Washington_-_Mad About The Boy
TTITLE3=Nina Simone_-_My baby Just Cares For Me
TTITLE4=Lena Horne_-_The Lady Is A Tramp
TTITLE5=Sarah Vaughan_-_My Favorite Things
TTITLE6=Peggy Lee_-_Manana
TTITLE7=Brenda Lee_-_I'm Sorry
TTITLE8=Wanda Jackson_-_Right Or Wrong
TTITLE9=Connie Francis_-_Heartbeat
TTITLE10=Patti Page_-_Tennessee Waltz
TTITLE11=Doris Day_-_Sentimenal Journey
TTITLE12=Judy Garland_-_Over The Rainbow
TTITLE13=Marilyn MonroeDiamons Are A Worlds Best Friends
TTITLE14=Helen Shapiro_-_Walking Back To Happiness
TTITLE15=Lesley Gore_-_It's My Party
EXTD=YEAR: 2003
EXTT0=
EXTT1=
EXTT2=
EXTT3=
EXTT4=
EXTT5=
EXTT6=
EXTT7=
EXTT8=
EXTT9=
EXTT10=
EXTT11=
EXTT12=
EXTT13=
EXTT14=
EXTT15=
PLAYORDER=
